<?xml version="1.0" encoding="UTF-8"?>
<svg version="1.1" xmlns="http://www.w3.org/2000/svg" width="1000" height="1000">
<path d="M0 0 C1.87824463 -0.01052147 1.87824463 -0.01052147 3.79443359 -0.02125549 C7.81351653 -0.03866658 11.83244995 -0.04568939 15.8515625 -0.046875 C16.53603706 -0.04731686 17.22051163 -0.04775871 17.92572784 -0.04821396 C38.26281397 -0.05510132 58.31153058 0.23128349 78.4765625 3.203125 C79.71712402 3.37473145 80.95768555 3.54633789 82.23583984 3.72314453 C143.20912845 12.24645621 202.60191161 32.53775495 255.4765625 64.203125 C256.38229004 64.74324219 257.28801758 65.28335938 258.22119141 65.83984375 C284.30943756 81.47700571 308.63094043 99.58139598 331.1171875 120.0625 C332.61442416 121.42092002 334.12360658 122.7663792 335.6484375 124.09375 C341.7236175 129.41476972 347.44576749 135.06537913 353.1640625 140.765625 C353.97222412 141.56919434 354.78038574 142.37276367 355.61303711 143.20068359 C360.44068448 148.04073626 365.03452396 153.00873377 369.4765625 158.203125 C370.42594453 159.28615558 371.37641294 160.36823511 372.328125 161.44921875 C380.1291222 170.39247004 387.39446536 179.68327335 394.4765625 189.203125 C395.01958008 189.93047852 395.56259766 190.65783203 396.12207031 191.40722656 C409.33186207 209.16941238 420.72360755 227.87023225 431.4765625 247.203125 C431.87439941 247.91082031 432.27223633 248.61851562 432.68212891 249.34765625 C460.28453014 298.64193154 476.76164439 355.1269204 483.7265625 411.015625 C483.85118866 412.01456787 483.85118866 412.01456787 483.97833252 413.03369141 C485.60934054 426.26539256 486.62951987 439.38708664 486.6796875 452.7265625 C486.68670181 453.9787709 486.69371613 455.23097931 486.70094299 456.52113342 C486.71835341 460.54017058 486.72537678 464.55905823 486.7265625 468.578125 C486.72700436 469.26245228 486.72744621 469.94677956 486.72790146 470.65184402 C486.73478758 490.97979018 486.50282601 511.05242456 483.4765625 531.203125 C483.29963867 532.42725098 483.12271484 533.65137695 482.94042969 534.91259766 C476.27351619 580.20500565 463.82842618 623.86252534 444.71679688 665.49658203 C443.61502067 667.90097001 442.53426848 670.31329689 441.4609375 672.73046875 C435.9438887 684.99313472 429.25738949 696.60358265 422.4765625 708.203125 C422.0031543 709.01458984 421.52974609 709.82605469 421.04199219 710.66210938 C405.61938174 736.92613669 387.11278637 761.34158901 366.6171875 783.84375 C365.25876748 785.34098666 363.9133083 786.85016908 362.5859375 788.375 C357.26491778 794.45018 351.61430837 800.17232999 345.9140625 805.890625 C345.11049316 806.69878662 344.30692383 807.50694824 343.47900391 808.33959961 C338.63895124 813.16724698 333.67095373 817.76108646 328.4765625 822.203125 C327.39353192 823.15250703 326.31145239 824.10297544 325.23046875 825.0546875 C316.28721746 832.8556847 306.99641415 840.12102786 297.4765625 847.203125 C296.74920898 847.74614258 296.02185547 848.28916016 295.27246094 848.84863281 C277.51597112 862.05418843 258.82368343 873.486483 239.4765625 884.203125 C238.3019043 884.85643799 238.3019043 884.85643799 237.10351562 885.52294922 C188.24695438 912.51443516 133.57181521 928.5818178 78.4765625 936.203125 C77.35588379 936.36828613 76.23520508 936.53344727 75.08056641 936.70361328 C36.57759543 942.20728999 -6.07546047 941.97730194 -44.5234375 936.203125 C-45.74756348 936.02620117 -46.97168945 935.84927734 -48.23291016 935.66699219 C-93.52531815 929.00007869 -137.18283784 916.55498868 -178.81689453 897.44335938 C-181.22128251 896.34158317 -183.63360939 895.26083098 -186.05078125 894.1875 C-226.66133719 875.91966044 -264.32210194 849.25712809 -297.1640625 819.34375 C-298.66129916 817.98532998 -300.17048158 816.6398708 -301.6953125 815.3125 C-307.7704925 809.99148028 -313.49264249 804.34087087 -319.2109375 798.640625 C-320.01909912 797.83705566 -320.82726074 797.03348633 -321.65991211 796.20556641 C-326.48755948 791.36551374 -331.08139896 786.39751623 -335.5234375 781.203125 C-336.47281953 780.12009442 -337.42328794 779.03801489 -338.375 777.95703125 C-346.1759972 769.01377996 -353.44134036 759.72297665 -360.5234375 750.203125 C-361.06645508 749.47577148 -361.60947266 748.74841797 -362.16894531 747.99902344 C-375.37873707 730.23683762 -386.77048255 711.53601775 -397.5234375 692.203125 C-397.92127441 691.49542969 -398.31911133 690.78773438 -398.72900391 690.05859375 C-426.33140514 640.76431846 -442.80851939 584.2793296 -449.7734375 528.390625 C-449.85652161 527.72466309 -449.93960571 527.05870117 -450.02520752 526.37255859 C-451.65621554 513.14085744 -452.67639487 500.01916336 -452.7265625 486.6796875 C-452.73708397 484.80137489 -452.73708397 484.80137489 -452.74781799 482.88511658 C-452.76522841 478.86607942 -452.77225178 474.84719177 -452.7734375 470.828125 C-452.77387936 470.14379772 -452.77432121 469.45947044 -452.77477646 468.75440598 C-452.78166258 448.42645982 -452.54970101 428.35382544 -449.5234375 408.203125 C-449.34651367 406.97899902 -449.16958984 405.75487305 -448.98730469 404.49365234 C-442.32010173 359.19927782 -429.80126287 315.61497556 -410.77978516 273.95800781 C-409.67371442 271.53264788 -408.58585822 269.10023847 -407.50390625 266.6640625 C-389.22687408 226.05905115 -362.57706606 188.40404936 -332.6640625 155.5625 C-331.30564248 154.06526334 -329.9601833 152.55608092 -328.6328125 151.03125 C-323.31179278 144.95607 -317.66118337 139.23392001 -311.9609375 133.515625 C-311.15736816 132.70746338 -310.35379883 131.89930176 -309.52587891 131.06665039 C-304.6851905 126.23836891 -299.70841929 121.65660432 -294.5234375 117.203125 C-293.40158301 116.20543974 -292.28172543 115.20550365 -291.1640625 114.203125 C-281.07664268 105.23900274 -270.42466298 97.14778943 -259.5234375 89.203125 C-258.42878174 88.40044189 -258.42878174 88.40044189 -257.31201172 87.58154297 C-240.85020469 75.54926416 -223.47696747 64.98610166 -205.54345703 55.30126953 C-203.69190775 54.29471059 -201.85426353 53.2672631 -200.01953125 52.23046875 C-151.77427683 25.50073166 -96.25190112 9.750086 -41.7109375 2.953125 C-41.04497559 2.87004089 -40.37901367 2.78695679 -39.69287109 2.70135498 C-26.46116989 1.07034695 -13.33947592 0.05016785 0 0 Z " fill="#1A202C" transform="translate(481.5234375,29.796875)"/>
<path d="M0 0 C1.87824463 -0.01052147 1.87824463 -0.01052147 3.79443359 -0.02125549 C7.81351653 -0.03866658 11.83244995 -0.04568939 15.8515625 -0.046875 C16.53603706 -0.04731686 17.22051163 -0.04775871 17.92572784 -0.04821396 C38.26281397 -0.05510132 58.31153058 0.23128349 78.4765625 3.203125 C79.71712402 3.37473145 80.95768555 3.54633789 82.23583984 3.72314453 C143.20912845 12.24645621 202.60191161 32.53775495 255.4765625 64.203125 C256.38229004 64.74324219 257.28801758 65.28335938 258.22119141 65.83984375 C284.30943756 81.47700571 308.63094043 99.58139598 331.1171875 120.0625 C332.61442416 121.42092002 334.12360658 122.7663792 335.6484375 124.09375 C341.7236175 129.41476972 347.44576749 135.06537913 353.1640625 140.765625 C353.97222412 141.56919434 354.78038574 142.37276367 355.61303711 143.20068359 C360.44068448 148.04073626 365.03452396 153.00873377 369.4765625 158.203125 C370.42594453 159.28615558 371.37641294 160.36823511 372.328125 161.44921875 C380.1291222 170.39247004 387.39446536 179.68327335 394.4765625 189.203125 C395.01958008 189.93047852 395.56259766 190.65783203 396.12207031 191.40722656 C409.33186207 209.16941238 420.72360755 227.87023225 431.4765625 247.203125 C431.87439941 247.91082031 432.27223633 248.61851562 432.68212891 249.34765625 C460.28453014 298.64193154 476.76164439 355.1269204 483.7265625 411.015625 C483.85118866 412.01456787 483.85118866 412.01456787 483.97833252 413.03369141 C485.60934054 426.26539256 486.62951987 439.38708664 486.6796875 452.7265625 C486.68670181 453.9787709 486.69371613 455.23097931 486.70094299 456.52113342 C486.71835341 460.54017058 486.72537678 464.55905823 486.7265625 468.578125 C486.72700436 469.26245228 486.72744621 469.94677956 486.72790146 470.65184402 C486.73478758 490.97979018 486.50282601 511.05242456 483.4765625 531.203125 C483.29963867 532.42725098 483.12271484 533.65137695 482.94042969 534.91259766 C476.27351619 580.20500565 463.82842618 623.86252534 444.71679688 665.49658203 C443.61502067 667.90097001 442.53426848 670.31329689 441.4609375 672.73046875 C435.9438887 684.99313472 429.25738949 696.60358265 422.4765625 708.203125 C422.0031543 709.01458984 421.52974609 709.82605469 421.04199219 710.66210938 C405.61938174 736.92613669 387.11278637 761.34158901 366.6171875 783.84375 C365.25876748 785.34098666 363.9133083 786.85016908 362.5859375 788.375 C357.26491778 794.45018 351.61430837 800.17232999 345.9140625 805.890625 C345.11049316 806.69878662 344.30692383 807.50694824 343.47900391 808.33959961 C338.63895124 813.16724698 333.67095373 817.76108646 328.4765625 822.203125 C327.39353192 823.15250703 326.31145239 824.10297544 325.23046875 825.0546875 C316.28721746 832.8556847 306.99641415 840.12102786 297.4765625 847.203125 C296.74920898 847.74614258 296.02185547 848.28916016 295.27246094 848.84863281 C277.51597112 862.05418843 258.82368343 873.486483 239.4765625 884.203125 C238.3019043 884.85643799 238.3019043 884.85643799 237.10351562 885.52294922 C188.24695438 912.51443516 133.57181521 928.5818178 78.4765625 936.203125 C77.35588379 936.36828613 76.23520508 936.53344727 75.08056641 936.70361328 C36.57759543 942.20728999 -6.07546047 941.97730194 -44.5234375 936.203125 C-45.74756348 936.02620117 -46.97168945 935.84927734 -48.23291016 935.66699219 C-93.52531815 929.00007869 -137.18283784 916.55498868 -178.81689453 897.44335938 C-181.22128251 896.34158317 -183.63360939 895.26083098 -186.05078125 894.1875 C-226.66133719 875.91966044 -264.32210194 849.25712809 -297.1640625 819.34375 C-298.66129916 817.98532998 -300.17048158 816.6398708 -301.6953125 815.3125 C-307.7704925 809.99148028 -313.49264249 804.34087087 -319.2109375 798.640625 C-320.01909912 797.83705566 -320.82726074 797.03348633 -321.65991211 796.20556641 C-326.48755948 791.36551374 -331.08139896 786.39751623 -335.5234375 781.203125 C-336.47281953 780.12009442 -337.42328794 779.03801489 -338.375 777.95703125 C-346.1759972 769.01377996 -353.44134036 759.72297665 -360.5234375 750.203125 C-361.06645508 749.47577148 -361.60947266 748.74841797 -362.16894531 747.99902344 C-375.37873707 730.23683762 -386.77048255 711.53601775 -397.5234375 692.203125 C-397.92127441 691.49542969 -398.31911133 690.78773438 -398.72900391 690.05859375 C-426.33140514 640.76431846 -442.80851939 584.2793296 -449.7734375 528.390625 C-449.85652161 527.72466309 -449.93960571 527.05870117 -450.02520752 526.37255859 C-451.65621554 513.14085744 -452.67639487 500.01916336 -452.7265625 486.6796875 C-452.73708397 484.80137489 -452.73708397 484.80137489 -452.74781799 482.88511658 C-452.76522841 478.86607942 -452.77225178 474.84719177 -452.7734375 470.828125 C-452.77387936 470.14379772 -452.77432121 469.45947044 -452.77477646 468.75440598 C-452.78166258 448.42645982 -452.54970101 428.35382544 -449.5234375 408.203125 C-449.34651367 406.97899902 -449.16958984 405.75487305 -448.98730469 404.49365234 C-442.32010173 359.19927782 -429.80126287 315.61497556 -410.77978516 273.95800781 C-409.67371442 271.53264788 -408.58585822 269.10023847 -407.50390625 266.6640625 C-389.22687408 226.05905115 -362.57706606 188.40404936 -332.6640625 155.5625 C-331.30564248 154.06526334 -329.9601833 152.55608092 -328.6328125 151.03125 C-323.31179278 144.95607 -317.66118337 139.23392001 -311.9609375 133.515625 C-311.15736816 132.70746338 -310.35379883 131.89930176 -309.52587891 131.06665039 C-304.6851905 126.23836891 -299.70841929 121.65660432 -294.5234375 117.203125 C-293.40158301 116.20543974 -292.28172543 115.20550365 -291.1640625 114.203125 C-281.07664268 105.23900274 -270.42466298 97.14778943 -259.5234375 89.203125 C-258.42878174 88.40044189 -258.42878174 88.40044189 -257.31201172 87.58154297 C-240.85020469 75.54926416 -223.47696747 64.98610166 -205.54345703 55.30126953 C-203.69190775 54.29471059 -201.85426353 53.2672631 -200.01953125 52.23046875 C-151.77427683 25.50073166 -96.25190112 9.750086 -41.7109375 2.953125 C-41.04497559 2.87004089 -40.37901367 2.78695679 -39.69287109 2.70135498 C-26.46116989 1.07034695 -13.33947592 0.05016785 0 0 Z M-32.5234375 40.203125 C-33.6160791 40.32671387 -34.7087207 40.45030273 -35.83447266 40.57763672 C-82.7927647 45.95006647 -127.97705648 59.74349843 -170.5234375 80.203125 C-171.37421875 80.60466797 -172.225 81.00621094 -173.1015625 81.41992188 C-206.31707656 97.11373001 -236.82543986 118.16188548 -264.5234375 142.203125 C-265.235 142.81414062 -265.9465625 143.42515625 -266.6796875 144.0546875 C-268.64395597 145.75329671 -270.58700282 147.47285066 -272.5234375 149.203125 C-273.36648438 149.95335937 -274.20953125 150.70359375 -275.078125 151.4765625 C-281.32963376 157.11816797 -287.3708413 162.94690907 -293.3359375 168.890625 C-294.39349243 169.9412915 -294.39349243 169.9412915 -295.47241211 171.01318359 C-300.02633552 175.58053091 -304.32679249 180.30714727 -308.5234375 185.203125 C-309.3690625 186.16734375 -310.2146875 187.1315625 -311.0859375 188.125 C-335.7145118 216.70046121 -355.5483263 248.61590787 -372.5234375 282.203125 C-372.89710449 282.93966309 -373.27077148 283.67620117 -373.65576172 284.43505859 C-392.11641076 321.1707781 -404.63122595 362.20854188 -410.0703125 402.97021484 C-410.53780351 406.30562215 -411.09009036 409.62008959 -411.6484375 412.94140625 C-414.51218727 431.27601624 -414.92804085 449.5369413 -414.95689392 468.07078552 C-414.96086152 470.04040535 -414.97006472 472.01001241 -414.97937012 473.97961426 C-415.03477133 491.91761205 -413.93622632 509.42852521 -411.5234375 527.203125 C-411.41657623 528.00574768 -411.30971497 528.80837036 -411.19961548 529.63531494 C-410.6051476 534.04499958 -409.934173 538.43786189 -409.2109375 542.828125 C-408.89564087 544.75350098 -408.89564087 544.75350098 -408.57397461 546.71777344 C-405.40890601 565.61976793 -400.73211818 584.07932855 -394.5234375 602.203125 C-394.17297363 603.23775879 -393.82250977 604.27239258 -393.46142578 605.33837891 C-387.66231269 622.36237417 -381.13201565 638.90665802 -373.5234375 655.203125 C-373.12721191 656.05745117 -372.73098633 656.91177734 -372.32275391 657.79199219 C-355.38178875 693.96614612 -332.16402021 728.08209019 -305.078125 757.40234375 C-303.11526819 759.5542831 -301.20690388 761.72991308 -299.30859375 763.9375 C-295.10661604 768.75377871 -290.61468893 773.25845619 -286.0859375 777.765625 C-285.27833984 778.57708984 -284.47074219 779.38855469 -283.63867188 780.22460938 C-278.76243697 785.09298572 -273.75634409 789.72286328 -268.5234375 794.203125 C-267.47514819 795.12860881 -266.42819558 796.05560969 -265.3828125 796.984375 C-204.54098995 850.46267681 -126.77912477 886.30976718 -46.5234375 897.203125 C-44.49214835 897.49191226 -42.46089841 897.78097548 -40.4296875 898.0703125 C-38.4403714 898.34568742 -36.45079608 898.61919774 -34.4609375 898.890625 C-33.5939624 899.01026611 -32.7269873 899.12990723 -31.83374023 899.25317383 C-16.66555947 901.22071416 -1.48885084 901.38957518 13.7824707 901.38842773 C17.00941354 901.390605 20.23600824 901.40880622 23.46289062 901.42773438 C43.33787229 901.48298135 62.89636302 899.86443759 82.5390625 896.890625 C83.25615387 896.78396515 83.97324524 896.6773053 84.71206665 896.56741333 C97.11917009 894.71255008 109.32013648 892.32198251 121.4765625 889.203125 C122.17185059 889.0292627 122.86713867 888.85540039 123.58349609 888.67626953 C150.79412547 881.86197803 177.06236557 872.01165469 202.4765625 860.203125 C203.33523926 859.80544922 204.19391602 859.40777344 205.07861328 858.99804688 C233.87744111 845.50876037 260.5566516 827.86519394 285.4765625 808.203125 C286.49363281 807.40132812 287.51070312 806.59953125 288.55859375 805.7734375 C294.4116424 801.06755289 299.96445753 796.09272208 305.45703125 790.9765625 C307.67482161 788.91571771 309.94675188 786.93088272 312.2421875 784.95703125 C317.04940613 780.76702872 321.54228435 776.28393601 326.0390625 771.765625 C326.85052734 770.95802734 327.66199219 770.15042969 328.49804688 769.31835938 C333.36590871 764.44263981 338.00404866 759.44227423 342.4765625 754.203125 C343.3221875 753.23890625 344.1678125 752.2746875 345.0390625 751.28125 C364.36035429 728.86359734 381.29804857 704.17126933 395.4765625 678.203125 C396.19489258 676.89190674 396.19489258 676.89190674 396.92773438 675.55419922 C419.64696516 633.78656266 435.86315281 588.1858769 443.4765625 541.203125 C443.647323 540.16983063 443.647323 540.16983063 443.8215332 539.11566162 C447.54275209 516.45741744 448.94065869 494.10174967 448.9140625 471.140625 C448.91419342 469.9740033 448.91432434 468.80738159 448.91445923 467.60540771 C448.87247451 446.8106905 447.57338113 426.17483005 444.6640625 405.578125 C444.49302002 404.36141113 444.32197754 403.14469727 444.14575195 401.89111328 C442.67077718 391.81046472 440.68430091 381.93573839 438.19482422 372.05957031 C437.41631859 368.96354179 436.66779822 365.86090349 435.91796875 362.7578125 C421.42673095 303.82507343 393.39960805 248.52207012 355.4765625 201.203125 C354.68121094 200.19636719 353.88585937 199.18960938 353.06640625 198.15234375 C348.35995363 192.28380407 343.37450358 186.72418788 338.25 181.22265625 C336.17937538 178.9941122 334.18383965 176.71160618 332.19921875 174.40625 C328.17325286 169.78723173 323.88122957 165.46080641 319.5390625 161.140625 C318.39920898 159.9949707 318.39920898 159.9949707 317.23632812 158.82617188 C312.47925938 154.07722793 307.57783292 149.57766494 302.4765625 145.203125 C301.42834687 144.27755773 300.38139471 143.35055686 299.3359375 142.421875 C276.84557869 122.65346331 251.74166326 105.54377608 225.4765625 91.203125 C224.60241699 90.72423828 223.72827148 90.24535156 222.82763672 89.75195312 C176.94657301 64.79525074 127.3448367 48.59356203 75.6640625 41.515625 C74.87659637 41.40685028 74.08913025 41.29807556 73.27780151 41.18600464 C54.84661072 38.66020706 36.69151228 37.99707815 18.1015625 38.015625 C16.98584869 38.01622925 15.87013489 38.0168335 14.72061157 38.01745605 C-1.12670402 38.04079001 -16.77753099 38.26586421 -32.5234375 40.203125 Z " fill="#F46464" transform="translate(481.5234375,29.796875)"/>
<path d="M0 0 C-0.59850127 11.85462545 -1.57378496 23.62980225 -2.8125 35.43359375 C-2.98825344 37.13084207 -3.16378611 38.82811327 -3.33911133 40.52540588 C-3.7031056 44.04071733 -4.06978933 47.5557344 -4.43847656 51.07055664 C-4.91116693 55.57912139 -5.37678906 60.08838497 -5.84046936 64.59788418 C-6.19966891 68.08361645 -6.56256686 71.56895592 -6.92660522 75.05418587 C-7.10000361 76.71868942 -7.2722318 78.38331532 -7.44326782 80.04806328 C-7.68105814 82.3572445 -7.92382952 84.66584784 -8.16796875 86.97436523 C-8.30485107 88.28654526 -8.4417334 89.59872528 -8.58276367 90.95066833 C-9 94 -9 94 -10 96 C-10.23296698 99.53887942 -10.39433488 103.0712395 -10.51757812 106.61523438 C-10.79388133 112.61570585 -11.36379073 116.67059806 -15.94921875 120.875 C-17.18736348 121.92610262 -18.43402122 122.96723186 -19.6875 124 C-21.05491414 125.15467958 -22.42209518 126.30963524 -23.7890625 127.46484375 C-24.4893457 128.05120605 -25.18962891 128.63756836 -25.91113281 129.24169922 C-29.16123335 131.9774664 -32.35970329 134.7716778 -35.5625 137.5625 C-40.9315982 142.22097201 -46.32135378 146.85476269 -51.72412109 151.47412109 C-55.41770093 154.63484298 -59.09235987 157.8163825 -62.75878906 161.00854492 C-67.69952368 165.30948568 -72.6538935 169.57001992 -77.75 173.6875 C-82.41765023 177.46442999 -86.83332417 181.46590065 -91.25 185.53125 C-94.81184229 188.72881296 -98.52565833 191.71388343 -102.25 194.71875 C-105.08099578 197.06718968 -107.79383598 199.50909902 -110.5 202 C-114.9698512 206.11378909 -119.59044893 209.97087297 -124.31640625 213.78515625 C-126.94708557 215.95632827 -129.47942424 218.20241357 -132 220.5 C-136.29991791 224.41891252 -140.75919547 228.09170869 -145.28125 231.75 C-148.77908151 234.64475711 -152.11785404 237.69589539 -155.47265625 240.75390625 C-158.06962393 243.06187598 -160.73404013 245.25555863 -163.4375 247.4375 C-167.24087503 250.51336588 -170.90082652 253.68753166 -174.5 257 C-178.9698512 261.11378909 -183.59044893 264.97087297 -188.31640625 268.78515625 C-190.94708557 270.95632827 -193.47942424 273.20241357 -196 275.5 C-199.39598682 278.59555196 -202.86171531 281.55151207 -206.4375 284.4375 C-210.24087503 287.51336588 -213.90082652 290.68753166 -217.5 294 C-221.9698512 298.11378909 -226.59044893 301.97087297 -231.31640625 305.78515625 C-233.94708557 307.95632827 -236.47942424 310.20241357 -239 312.5 C-242.39598682 315.59555196 -245.86171531 318.55151207 -249.4375 321.4375 C-253.24087503 324.51336588 -256.90082652 327.68753166 -260.5 331 C-264.9698512 335.11378909 -269.59044893 338.97087297 -274.31640625 342.78515625 C-276.94708557 344.95632827 -279.47942424 347.20241357 -282 349.5 C-285.39598682 352.59555196 -288.86171531 355.55151207 -292.4375 358.4375 C-296.24087503 361.51336588 -299.90082652 364.68753166 -303.5 368 C-307.96502417 372.10934657 -312.5806948 375.96235486 -317.30078125 379.7734375 C-321.66312437 383.37189709 -325.81464947 387.19901839 -330 391 C-336.66666667 397 -336.66666667 397 -339 397 C-336.45102222 401.92912181 -332.83492328 405.421289 -328.92578125 409.26953125 C-328.2419487 409.95053391 -327.55811615 410.63153656 -326.8535614 411.33317566 C-324.677874 413.49770768 -322.49532083 415.65516424 -320.3125 417.8125 C-318.83222319 419.28274103 -317.35240024 420.75343918 -315.87304688 422.22460938 C-312.25393443 425.82172302 -308.62865016 429.41250895 -305 433 C-306.6586188 436.52344644 -308.56657308 438.79901878 -311.3515625 441.546875 C-312.20234375 442.39121094 -313.053125 443.23554687 -313.9296875 444.10546875 C-314.81914062 444.97816406 -315.70859375 445.85085938 -316.625 446.75 C-317.5221875 447.63816406 -318.419375 448.52632812 -319.34375 449.44140625 C-321.55807004 451.63216969 -323.77692435 453.81812763 -326 456 C-329.87682696 454.40840205 -332.32442121 451.92194449 -335.26446533 448.9760437 C-335.78241063 448.45980725 -336.30035593 447.94357081 -336.83399653 447.41169083 C-338.56762161 445.68135895 -340.29400347 443.94397773 -342.02050781 442.20654297 C-343.26203174 440.96445489 -344.50399625 439.72280705 -345.74636841 438.48156738 C-349.11828582 435.11022433 -352.48399659 431.73274562 -355.8486414 428.35414648 C-359.36579678 424.82449775 -362.88860792 421.30050319 -366.41082764 417.77590942 C-373.07999439 411.1005238 -379.74404604 404.4200558 -386.40628314 397.73775494 C-393.99116335 390.13052841 -401.58171603 382.5289728 -409.17275476 374.92789245 C-424.78816458 359.29157143 -440.39642331 343.64812879 -456 328 C-454.3413812 324.47655356 -452.43342692 322.20098122 -449.6484375 319.453125 C-448.79765625 318.60878906 -447.946875 317.76445313 -447.0703125 316.89453125 C-446.18085938 316.02183594 -445.29140625 315.14914062 -444.375 314.25 C-443.4778125 313.36183594 -442.580625 312.47367188 -441.65625 311.55859375 C-439.44192996 309.36783031 -437.22307565 307.18187237 -435 305 C-432.04734888 306.32994383 -429.97649784 307.77779316 -427.70019531 310.07275391 C-427.07985413 310.69324615 -426.45951294 311.3137384 -425.82037354 311.95303345 C-425.16293152 312.62079803 -424.5054895 313.28856262 -423.828125 313.9765625 C-423.1457074 314.66181 -422.46328979 315.3470575 -421.76019287 316.05307007 C-419.58538402 318.23905845 -417.41763928 320.43190429 -415.25 322.625 C-413.7752001 324.10983255 -412.29994494 325.59421306 -410.82421875 327.078125 C-407.21084552 330.7135291 -403.60379147 334.35509824 -400 338 C-397.05734687 336.59554388 -395.18918775 335.37927305 -393.08203125 332.875 C-392.29058716 331.94627075 -392.29058716 331.94627075 -391.4831543 330.9987793 C-390.65618042 330.00938354 -390.65618042 330.00938354 -389.8125 329 C-388.64926463 327.63080728 -387.48519987 326.26231875 -386.3203125 324.89453125 C-385.75344727 324.22631348 -385.18658203 323.5580957 -384.60253906 322.86962891 C-382.51224227 320.43094932 -380.35623366 318.05648259 -378.1875 315.6875 C-375.35338694 312.56482271 -372.67009271 309.37653217 -370.0625 306.0625 C-366.41773145 301.43422248 -362.49756644 297.12044674 -358.5078125 292.7890625 C-355.27412028 289.19271321 -352.25160975 285.44619485 -349.21484375 281.68359375 C-347.04367173 279.05291443 -344.79758643 276.52057576 -342.5 274 C-339.38541332 270.58260628 -336.4081338 267.0947765 -333.5 263.5 C-329.88850866 259.03579543 -326.11339306 254.76997886 -322.24609375 250.52734375 C-319.93812402 247.93037607 -317.74444137 245.26595987 -315.5625 242.5625 C-311.70174863 237.788597 -307.62562925 233.26611572 -303.46875 228.75 C-301.05621896 226.06262366 -298.7674379 223.31034556 -296.5 220.5 C-293.44651321 216.71539666 -290.29331699 213.07792463 -287 209.5 C-282.86912447 205.01102999 -278.98923519 200.37290024 -275.15625 195.62890625 C-271.88911781 191.64560922 -268.44449495 187.82959376 -265 184 C-260.38464012 178.80096463 -255.88096912 173.51027326 -251.39697266 168.19799805 C-246.4661898 162.35926413 -241.49044632 156.5595686 -236.51171875 150.76171875 C-235.01673505 149.0195026 -233.52365734 147.27567336 -232.03125 145.53125 C-226.3113099 138.84699995 -220.56468543 132.18704365 -214.79418945 125.54638672 C-210.78226891 120.92192704 -206.82721278 116.25218129 -202.88696289 111.56665039 C-200.11068668 108.27754911 -197.27215971 105.05786577 -194.375 101.875 C-190.50132754 97.61533882 -186.87046906 93.19405203 -183.25 88.71875 C-180.35642111 85.22234218 -177.30650817 81.88491868 -174.25 78.53125 C-171.92137947 75.9115519 -169.70437053 73.2248469 -167.5 70.5 C-163.88850866 66.03579543 -160.11339306 61.76997886 -156.24609375 57.52734375 C-153.93812402 54.93037607 -151.74444137 52.26595987 -149.5625 49.5625 C-145.70291397 44.79003797 -141.62800009 40.26890891 -137.47265625 35.75390625 C-134.34597632 32.271585 -131.40839979 28.65845044 -128.49609375 24.99609375 C-127.67238281 24.00738281 -126.84867188 23.01867187 -126 22 C-125.12770752 20.76358765 -125.12770752 20.76358765 -124.23779297 19.50219727 C-120.03938069 14.0448489 -117.01544592 11.41035912 -110.078125 10.47265625 C-107.47159872 10.28948782 -104.86135753 10.15383319 -102.25 10.0625 C-99.67151341 9.91369051 -97.09338233 9.75860513 -94.515625 9.59765625 C-93.84246246 9.55994614 -93.16929993 9.52223602 -92.47573853 9.48338318 C-87.04986209 9.15198466 -81.72430731 8.44641006 -76.3515625 7.6328125 C-63.94945741 5.76422924 -51.49547156 4.48174457 -39.02001953 3.21020508 C-35.08173153 2.80808203 -31.14437391 2.39759416 -27.20703125 1.98632812 C-24.68234233 1.7260706 -22.15760447 1.46628724 -19.6328125 1.20703125 C-18.46614044 1.08519974 -17.29946838 0.96336823 -16.09744263 0.83784485 C-15.00454926 0.72740341 -13.91165588 0.61696198 -12.78564453 0.50317383 C-11.35842575 0.35686272 -11.35842575 0.35686272 -9.90237427 0.20759583 C-6.59400221 -0.02903948 -3.31569485 -0.03322498 0 0 Z " fill="#CFCCE0" transform="translate(771,219)"/>
<path d="M0 0 C9.26252721 0.70274391 18.52348686 1.42348589 27.78076172 2.19238281 C29.2457366 2.312933 30.71090598 2.43114514 32.17626953 2.546875 C40.86857526 3.23490999 49.46428127 4.17070585 58.0859375 5.48046875 C65.76804685 6.64369302 73.41518439 7.40931672 81.1640625 7.96484375 C84.27217277 8.20855349 87.37998903 8.45578677 90.48779297 8.70336914 C92.59594434 8.86070122 94.70547819 9.00041078 96.81591797 9.12329102 C116.38115027 10.29936785 116.38115027 10.29936785 122.30099487 16.23146057 C124.4021349 18.69558585 126.21117251 21.30309784 128 24 C129.50486084 25.86715342 131.02344215 27.72343258 132.5625 29.5625 C133.28566406 30.46097656 134.00882813 31.35945313 134.75390625 32.28515625 C137.0883059 35.10673495 139.51990598 37.80590712 142 40.5 C146.02097409 44.87304095 149.80189519 49.38099158 153.53515625 54 C158.5572054 60.11241481 163.80028075 66.03876581 169 72 C181.48834094 86.31729705 181.48834094 86.31729705 186.6875 92.75 C190.46442999 97.41765023 194.46590065 101.83332417 198.53125 106.25 C201.72881296 109.81184229 204.71388343 113.52565833 207.71875 117.25 C210.06718968 120.08099578 212.50909902 122.79383598 215 125.5 C219.09351091 129.94727112 222.92442499 134.54717463 226.71875 139.25 C229.06718968 142.08099578 231.50909902 144.79383598 234 147.5 C238.89661131 152.82306579 243.46149131 158.3715345 248 164 C249.65839866 166.00712736 251.32789773 168.00426503 253 170 C251.40202971 173.86252247 248.77830749 176.58192517 245.9375 179.5625 C241.56997758 184.23282781 237.46055534 189.03614822 233.4453125 194.015625 C226.94334582 201.95093257 220.1514345 209.66083514 213.25 217.25 C209.40464094 221.48903385 205.79273675 225.88907723 202.19140625 230.3359375 C199.51039972 233.59520034 196.72268467 236.74413607 193.90234375 239.8828125 C190.89978382 243.22447058 187.95401514 246.61546696 185 250 C183.68768218 251.50015939 182.3751866 253.0001633 181.0625 254.5 C180.18271484 255.50546875 180.18271484 255.50546875 179.28515625 256.53125 C178.86105469 257.0159375 178.43695313 257.500625 178 258 C165.30377244 252.18208985 154.03260419 239.5993105 143.75 230.25 C139.53046667 226.42168168 135.14730858 222.83265413 130.71875 219.25 C127.22234218 216.35642111 123.88491868 213.30650817 120.53125 210.25 C117.9115519 207.92137947 115.2248469 205.70437053 112.5 203.5 C108.03723787 199.88967558 103.77280467 196.11572071 99.53125 192.25 C96.9115519 189.92137947 94.2248469 187.70437053 91.5 185.5 C87.03435293 181.8873417 82.76715385 178.11106455 78.5234375 174.2421875 C75.94917642 171.95484096 73.30710511 169.78451729 70.625 167.625 C66.61173716 164.38047483 62.77584616 161.01252817 59 157.5 C54.46607379 153.28603881 49.78759542 149.31774933 44.96875 145.43359375 C40.18567626 141.51273199 35.54272316 137.43233956 30.87890625 133.37109375 C26.37704739 129.45151945 21.84214292 125.57091568 17.3034668 121.6940918 C12.35597955 117.4638203 11.75671065 115.86710448 11.1328125 109.46875 C11.05369125 108.69547867 10.97457001 107.92220734 10.89305115 107.12550354 C10.72261943 105.45715586 10.55409056 103.78861295 10.38723755 102.11990356 C9.9461378 97.713064 9.49047728 93.30773311 9.03515625 88.90234375 C8.90031075 87.59383705 8.90031075 87.59383705 8.76274109 86.25889587 C8.09858763 79.85095534 7.36171336 73.45505441 6.5625 67.0625 C5.14461815 55.59137841 3.89555079 44.10237291 2.66061401 32.61032104 C2.43007289 30.46770537 2.19825824 28.32522631 1.96511841 26.18289185 C1.63567943 23.15097061 1.31129165 20.11854955 0.98828125 17.0859375 C0.88843933 16.17338699 0.78859741 15.26083649 0.68572998 14.32063293 C0.18019598 9.51460162 -0.10401701 4.832474 0 0 Z " fill="#CFCCE0" transform="translate(222,219)"/>
<path d="M0 0 C3.94174527 0.55717988 5.79261483 2.38765414 8.59457397 5.12614441 C9.51169159 6.01601547 10.4288092 6.90588654 11.37371826 7.82272339 C12.38264681 8.81675208 13.39136789 9.81099139 14.39990234 10.80541992 C15.4672425 11.84741175 16.53511687 12.88885661 17.60348511 13.92979431 C21.10914229 17.35171155 24.59844475 20.79005476 28.0859375 24.23046875 C28.68000538 24.81594176 29.27407327 25.40141476 29.88614321 26.00462937 C35.49111372 31.5285319 41.09087056 37.05765502 46.67650414 42.60111523 C53.81508358 49.68532683 60.97924247 56.74120186 68.18190038 63.7602722 C73.24778212 68.70138431 78.28251242 73.67290934 83.29529917 78.66787225 C86.28849341 81.64881936 89.29352524 84.61492557 92.33256149 87.5491848 C95.19350911 90.31284154 98.01377619 93.11241107 100.80803299 95.94342995 C101.83664512 96.9724286 102.87893846 97.98796845 103.93569946 98.98803711 C111.86397331 106.513582 111.86397331 106.513582 112.20134354 112.68033791 C111.34490603 119.26063199 109.73790131 124.80683761 106.25 130.4375 C105.71221924 131.30967163 105.71221924 131.30967163 105.16357422 132.19946289 C97.03870116 145.11616037 85.44221967 153.04710926 70.86599255 157.67797375 C66.66472675 158.57456391 64.07249765 158.66387454 60.34690285 156.35773659 C57.3659596 153.7591828 54.5905099 151.00993102 51.84301758 148.17114258 C50.76835833 147.10156986 49.69131602 146.03438702 48.61209106 144.96942139 C45.6967813 142.07857545 42.8168733 139.15467903 39.94285798 136.22284913 C36.92977853 133.15951979 33.88745511 130.12549273 30.84880066 127.08757019 C25.75395198 121.98529059 20.68065636 116.86236157 15.62084961 111.7253418 C9.76642874 105.78187257 3.88456759 99.86674933 -2.01398391 93.9670952 C-8.2919064 87.68760132 -14.55061257 81.3892317 -20.80314851 75.08447051 C-22.60791891 73.26706394 -24.41610889 71.45311846 -26.22502708 69.63984108 C-29.06151179 66.79446147 -31.8848185 63.93661835 -34.69828415 61.06848145 C-35.73444985 60.01607481 -36.77491804 58.96788511 -37.81986809 57.92420006 C-39.24135565 56.50292602 -40.64594295 55.06480788 -42.04948425 53.62580872 C-43.23708989 52.42368602 -43.23708989 52.42368602 -44.44868755 51.19727802 C-46 49 -46 49 -45.88802052 46.85444164 C-44.50128887 43.95854805 -42.29895997 42.3239058 -39.875 40.25 C-35.79844923 36.69377609 -32.15656847 33.00950023 -28.6796875 28.8671875 C-26.30078736 26.22273571 -23.6132203 24.00946286 -20.90234375 21.71484375 C-18.53225968 19.57836139 -16.58701715 17.21497729 -14.56640625 14.75390625 C-12.23487307 12.1432868 -9.56726323 9.9717713 -6.90234375 7.7109375 C-4.27983056 5.35229114 -2.16758342 2.77721626 0 0 Z " fill="#CFCCE0" transform="translate(659,610)"/>
<path d="M0 0 C3.53064237 1.66415489 5.81935682 3.57676893 8.58496094 6.35791016 C9.93590851 7.70908432 9.93590851 7.70908432 11.31414795 9.08755493 C12.28766481 10.07128408 13.26107125 11.0551225 14.234375 12.0390625 C15.23713161 13.04555128 16.24033222 14.05159789 17.24395752 15.05722046 C19.87873813 17.69962147 22.50745611 20.34797428 25.13494873 22.99761963 C27.81939688 25.70256052 30.50954622 28.40181821 33.19921875 31.1015625 C38.47173618 36.39550174 43.73786057 41.69574283 49 47 C47.49080009 50.5144793 45.44907175 52.83136935 42.78483582 55.55661011 C41.90055908 56.46531357 41.01628235 57.37401703 40.10520935 58.31025696 C39.12261972 59.30968992 38.13987209 60.30896757 37.15698242 61.30810547 C36.12328539 62.36580071 35.0899175 63.4238177 34.05685425 64.48213196 C30.66491351 67.95222435 27.26160532 71.41103423 23.85546875 74.8671875 C23.27545176 75.45574477 22.69543477 76.04430203 22.0978415 76.65069437 C16.62436953 82.20261938 11.14545384 87.7491353 5.65609264 93.28535271 C-1.35793659 100.36021548 -8.34604806 107.45871409 -15.30162889 114.59105957 C-20.19874228 119.60835498 -25.12433016 124.59655568 -30.07166404 129.56433213 C-33.02408701 132.53056174 -35.96245948 135.50811984 -38.87067604 138.51775742 C-41.60864115 141.35003929 -44.38026281 144.14448895 -47.18123245 146.91443443 C-48.20010583 147.93423792 -49.20631882 148.9668821 -50.19807625 150.01307487 C-57.67001935 157.87288415 -57.67001935 157.87288415 -63.44693565 158.18805313 C-75.95034597 156.41138502 -88.13303822 150.36443393 -96.05078125 140.42578125 C-98.11230244 137.66326748 -100.0784739 134.86131178 -102 132 C-102.42539063 131.36835937 -102.85078125 130.73671875 -103.2890625 130.0859375 C-107.16198367 123.84787364 -109.68074089 116.36259675 -109 109 C-107.2977066 106.55941963 -107.2977066 106.55941963 -104.86193848 104.14041138 C-103.94479568 103.2150206 -103.02765289 102.28962982 -102.0827179 101.3361969 C-101.05346729 100.32817967 -100.02393192 99.32045314 -98.99414062 98.31298828 C-97.91897403 97.23951441 -96.84512747 96.16471703 -95.77250671 95.08869934 C-92.85819711 92.17266764 -89.92575359 89.27550989 -86.98972893 86.3813653 C-83.92405797 83.35319198 -80.87536044 80.30802843 -77.8248291 77.26461792 C-72.0462603 71.5047007 -66.25256691 65.76024899 -60.45329714 60.02118289 C-53.85152987 53.48647068 -47.26678369 46.93472113 -40.68341923 40.38147759 C-27.14114535 26.90192588 -13.57762051 13.44394251 0 0 Z " fill="#CFCCE0" transform="translate(331,610)"/>
<path d="M0 0 C3.59721356 1.4954708 5.63097221 3.52706308 8.1875 6.4375 C8.97511719 7.33339844 9.76273438 8.22929688 10.57421875 9.15234375 C13.68137843 12.79987902 16.70167167 16.51300148 19.71484375 20.23828125 C23.33802152 24.61706191 27.15819309 28.81306622 31 33 C34.45051573 31.4559667 36.17421942 29.67625877 38.51953125 26.703125 C40.18834709 24.7833263 41.99575674 23.20466001 43.9375 21.5625 C46.53982775 19.34930537 48.83265328 17.13979287 51 14.5 C53.76020409 11.14401415 56.85930991 8.38906398 60.1640625 5.578125 C62.2145891 3.81554469 64.12772229 1.95028928 66 0 C69.56764285 1.51376081 71.83706287 3.60513129 74.546875 6.3515625 C75.39121094 7.20234375 76.23554687 8.053125 77.10546875 8.9296875 C77.97816406 9.81914063 78.85085938 10.70859375 79.75 11.625 C80.63816406 12.5221875 81.52632812 13.419375 82.44140625 14.34375 C84.63216969 16.55807004 86.81812763 18.77692435 89 21 C87.40840205 24.87682696 84.92194449 27.32442121 81.9760437 30.26446533 C81.20168903 31.04138328 81.20168903 31.04138328 80.41169083 31.83399653 C78.68135895 33.56762161 76.94397773 35.29400347 75.20654297 37.02050781 C73.96445489 38.26203174 72.72280705 39.50399625 71.48156738 40.74636841 C68.11022433 44.11828582 64.73274562 47.48399659 61.35414648 50.8486414 C57.82449775 54.36579678 54.30050319 57.88860792 50.77590942 61.41082764 C44.1005238 68.07999439 37.4200558 74.74404604 30.73775494 81.40628314 C23.13052841 88.99116335 15.5289728 96.58171603 7.92789245 104.17275476 C-7.70842857 119.78816458 -23.35187121 135.39642331 -39 151 C-42.52344644 149.3413812 -44.79901878 147.43342692 -47.546875 144.6484375 C-48.39121094 143.79765625 -49.23554687 142.946875 -50.10546875 142.0703125 C-50.97816406 141.18085937 -51.85085938 140.29140625 -52.75 139.375 C-54.08224609 138.02921875 -54.08224609 138.02921875 -55.44140625 136.65625 C-57.63216969 134.44192996 -59.81812763 132.22307565 -62 130 C-60.44938843 126.72724339 -58.80329895 124.58827146 -56.1875 122.0625 C-55.52105469 121.41410156 -54.85460937 120.76570312 -54.16796875 120.09765625 C-53.09482422 119.05931641 -53.09482422 119.05931641 -52 118 C-50.33067306 116.33599786 -48.6641163 114.66921314 -47 113 C-37 103 -37 103 -34.375 100.5 C-32.11967172 98.12597023 -30.55641405 95.86707851 -29 93 C-35.9413198 86.47802862 -42.92700708 80.13342195 -50.359375 74.16796875 C-53.95567129 71.21538822 -57.38368991 68.0937414 -60.80859375 64.9453125 C-62.80317928 63.17471786 -64.84128295 61.56371759 -67 60 C-65.5045292 56.40278644 -63.47293692 54.36902779 -60.5625 51.8125 C-59.6653125 51.02359375 -58.768125 50.2346875 -57.84375 49.421875 C-54.20682295 46.32449207 -50.49943265 43.32021628 -46.78515625 40.31640625 C-42.98890956 37.15907906 -39.38216642 33.81199409 -35.75 30.46875 C-32.18815771 27.27118704 -28.47434167 24.28611657 -24.75 21.28125 C-20.97724647 18.15157946 -17.39847502 14.82716748 -13.79296875 11.5078125 C-9.33252155 7.5027676 -4.67899716 3.74681784 0 0 Z " fill="#CECBDF" transform="translate(589,524)"/>
<path d="M0 0 C0.99 0.33 1.98 0.66 3 1 C-12.84 16.84 -28.68 32.68 -45 49 C-45.495 47.515 -45.495 47.515 -46 46 C-45.21496094 45.29875 -44.42992187 44.5975 -43.62109375 43.875 C-38.3039054 39.08648047 -33.24550386 34.32857031 -28.64453125 28.83203125 C-26.28029594 26.19823942 -23.59965923 23.99798411 -20.90234375 21.71484375 C-18.53225968 19.57836139 -16.58701715 17.21497729 -14.56640625 14.75390625 C-12.23487307 12.1432868 -9.56726323 9.9717713 -6.90234375 7.7109375 C-4.27983056 5.35229114 -2.16758342 2.77721626 0 0 Z " fill="#BAB7CA" transform="translate(659,610)"/>
</svg>
